HIERARCHY
ROOT hip
{
	OFFSET 0.000000 0.000000 0.000000 
	CHANNELS 6 Xposition Yposition Zposition Zrotation Xrotation Yrotation
	JOINT abdomen
	{
		OFFSET 0.000000 3.402643 0.000000 
		CHANNELS 3 Zrotation Xrotation Yrotation
		JOINT chest
		{
			OFFSET 0.000000 8.438565 -0.680529 
			CHANNELS 3 Zrotation Xrotation Yrotation
			JOINT neck
			{
				OFFSET 0.000000 10.207942 -0.272212 
				CHANNELS 3 Zrotation Xrotation Yrotation
				JOINT head
				{
					OFFSET 0.000000 3.130431 0.000000 
					CHANNELS 3 Zrotation Xrotation Yrotation
					End Site
					{
						OFFSET 0.000000 3.130435 0.000000 
					}
				}
			}
			JOINT lCollar
			{
				OFFSET 3.470700 6.669187 -0.816635 
				CHANNELS 3 Zrotation Xrotation Yrotation
				JOINT lShldr
				{
					OFFSET 3.198488 0.000000 0.000000 
					CHANNELS 3 Zrotation Xrotation Yrotation
					JOINT lForeArm
					{
						OFFSET 10.139888 0.000000 0.000000 
						CHANNELS 3 Zrotation Xrotation Yrotation
						JOINT lHand
						{
							OFFSET 8.370511 0.000000 0.000000 
							CHANNELS 3 Zrotation Xrotation Yrotation
							End Site
							{
								OFFSET 4.083176 0.000000 0.000000 
							}
						}
					}
				}
			}
			JOINT rCollar
			{
				OFFSET -3.470700 6.669187 -0.816635 
				CHANNELS 3 Zrotation Xrotation Yrotation
				JOINT rShldr
				{
					OFFSET -3.198488 0.000000 0.000000 
					CHANNELS 3 Zrotation Xrotation Yrotation
					JOINT rForeArm
					{
						OFFSET -10.139888 0.000000 0.000000 
						CHANNELS 3 Zrotation Xrotation Yrotation
						JOINT rHand
						{
							OFFSET -8.370511 0.000000 0.000000 
							CHANNELS 3 Zrotation Xrotation Yrotation
							End Site
							{
								OFFSET -4.083176 0.000000 0.000000 
							}
						}
					}
				}
			}
		}
	}
	JOINT lThigh
	{
		OFFSET 5.308129 -1.633274 1.361059 
		CHANNELS 3 Zrotation Xrotation Yrotation
		JOINT lShin
		{
			OFFSET -2.041588 -20.007561 0.000000 
			CHANNELS 3 Zrotation Xrotation Yrotation
			JOINT lFoot
			{
				OFFSET 0.000000 -19.190928 -1.224953 
				CHANNELS 3 Zrotation Xrotation Yrotation
				End Site
				{
					OFFSET 0.000000 -2.449906 4.627600 
				}
			}
		}
	}
	JOINT rThigh
	{
		OFFSET -5.308129 -1.633274 1.361059 
		CHANNELS 3 Zrotation Xrotation Yrotation
		JOINT rShin
		{
			OFFSET 2.041588 -20.007561 0.000000 
			CHANNELS 3 Zrotation Xrotation Yrotation
			JOINT rFoot
			{
				OFFSET 0.000000 -19.190928 -1.224953 
				CHANNELS 3 Zrotation Xrotation Yrotation
				End Site
				{
					OFFSET 0.000000 -2.449906 4.627600 
				}
			}
		}
	}
}
MOTION
Frames: 9
Frame Time: 0.033333
-1.598135 47.548943 -2.612258 0.312508 0.410150 38.659870 -0.000000 -0.000002 -0.000000 -1.104047 1.777015 -35.053642 -0.757948 14.920623 0.312244 -0.954937 -15.993991 -0.145955 -2.000757 -0.069240 1.990978 -72.286812 35.024521 1.908147 4.820235 8.368590 -56.575764 30.493135 -7.029833 -7.576810 1.990970 -0.069577 -2.000746 28.903662 48.758549 66.031357 -13.863402 4.985866 72.676544 -86.069794 -50.751648 -77.151855 9.446246 -16.959538 -16.869869 -8.511558 41.210632 3.920132 -7.837382 -25.023537 3.198960 -19.509190 -8.283500 -33.893322 12.068460 32.390430 -1.322251 -3.003922 -20.803637 0.285206 
-0.659954 47.501606 -0.844203 1.064468 0.302682 31.761953 -0.000000 -0.000002 -0.000000 -2.023175 2.342294 -41.509071 0.805177 14.002583 8.438108 -0.954937 -15.993991 -0.145955 -2.000757 -0.069240 1.990978 -67.937614 37.570660 -3.635590 4.870262 8.309178 -57.349476 30.172073 -6.555685 -5.150963 1.990970 -0.069577 -2.000746 34.547478 47.426647 59.611050 -14.102579 4.213759 75.774994 -86.659966 -51.202034 -77.389938 8.515887 -13.489214 -16.586220 -8.708815 42.127239 4.017328 -6.409209 -23.389681 4.878156 -20.383907 -9.541081 -27.057783 13.180273 34.596386 -1.887535 -3.010133 -23.213919 0.471018 
0.462038 47.406502 2.635082 1.171875 0.019527 21.024990 -0.000000 -0.000002 -0.000000 -3.632831 -0.194917 -47.229183 4.520361 16.406647 16.729324 -0.954937 -15.993991 -0.145955 -2.000757 -0.069240 1.990978 -53.508087 40.105824 -15.957584 5.164262 7.843023 -62.506317 23.634123 -0.419407 2.841898 1.990970 -0.069577 -2.000746 47.604908 43.767311 45.060085 -14.282350 3.459875 78.743706 -97.797104 -55.695583 -84.299438 8.314199 -8.948169 -16.430758 -9.808988 45.953037 4.713458 -5.873644 -14.243601 5.729129 -18.092514 -11.115910 -13.135602 14.459425 36.916576 -2.639966 -3.064833 -27.839668 -2.282417 
1.584036 47.311573 6.114367 1.210954 -0.283140 10.289385 -0.000000 -0.000002 -0.000000 -5.493722 -2.546856 -53.018303 8.138848 19.969351 24.539101 -0.954937 -15.993991 -0.145955 -2.000757 -0.069240 1.990978 -38.249477 40.711517 -28.660273 5.409550 7.355535 -67.662148 16.278320 4.708593 11.513996 1.990970 -0.069577 -2.000746 57.509911 38.108498 32.566872 -14.424576 2.684467 81.724693 -111.204346 -59.220928 -93.570160 7.978161 -14.172044 -9.301713 -12.507489 51.841888 6.867701 -1.206281 -24.685976 11.623983 -15.668978 -11.828424 0.849679 15.069233 38.290684 -2.957902 -3.061872 -31.927460 -5.067696 
2.346532 47.155033 10.587774 0.927885 -1.035020 -2.297691 -0.000000 -0.000002 -0.000000 -7.584297 -4.704762 -58.898476 11.517101 24.604723 31.810911 -0.954937 -15.993991 -0.145955 -2.000757 -0.069240 1.990978 -23.050253 39.453236 -40.962166 5.611765 6.858230 -72.799561 8.158162 8.624892 20.842186 1.990970 -0.069577 -2.000746 64.193932 31.058962 22.166912 -14.534722 1.909486 84.683800 -126.802322 -61.378407 -105.090393 8.224446 -19.472109 -1.958522 -16.191486 58.030865 10.011347 4.816465 -35.663826 18.718115 -13.500005 -10.488289 13.084738 15.042876 38.256786 -2.935418 -2.870750 -35.685513 -3.967643 
3.109016 46.994381 15.061005 0.498269 -1.708919 -14.897226 -0.000000 -0.000002 -0.000000 -9.137110 -6.267757 -61.406376 12.234629 28.507004 35.978031 -0.954937 -15.993991 -0.145955 -2.000757 -0.069240 1.990978 -9.481039 32.176376 -53.708530 5.732027 6.471838 -76.607040 -0.120666 11.705971 28.335569 1.990970 -0.069577 -2.000746 69.050156 23.287622 16.184219 -14.590913 1.178728 87.491486 -147.479095 -63.360138 -121.330643 10.350789 -19.308426 5.153862 -11.167865 48.231224 5.902753 2.559850 -26.682730 18.994219 -13.272173 -8.498745 25.330931 14.024533 36.634140 -2.287153 -1.224309 -38.594917 -2.488305 
3.871512 46.832211 19.534536 -0.068413 -2.275388 -27.502728 -0.000000 -0.000002 -0.000000 -9.957862 -7.446015 -60.502598 10.499686 30.919479 37.528835 -0.954937 -15.993991 -0.145955 -2.000757 -0.069240 1.990978 -0.724330 18.627518 -64.383125 5.790861 6.212725 -79.100082 -8.371875 14.416738 33.919685 1.990970 -0.069577 -2.000746 73.548080 15.251075 14.120322 -14.619504 0.493836 90.118706 -173.668900 -63.189144 -142.760681 12.690404 -19.365129 12.377266 -7.955489 39.124931 3.610822 0.470869 -18.024765 19.708872 -14.470976 -6.689651 37.918961 12.118617 33.998051 -1.146480 1.222477 -41.090141 -1.375820 
3.697107 46.645840 20.584335 0.000000 -2.431641 -27.861155 -0.000000 -0.000002 -0.000000 -10.757916 -8.627344 -59.591534 8.730103 33.335327 39.191322 -0.954937 -15.993991 -0.145955 -2.000757 -0.069240 1.990978 4.557947 3.861489 -72.377640 5.846841 5.953356 -81.582588 -16.939425 16.298328 39.907532 1.990970 -0.069577 -2.000746 77.422142 6.989948 12.860880 -14.615773 -0.210078 92.740723 163.532379 -59.021130 -160.739700 14.233443 -19.061260 16.114702 -7.013982 36.053844 2.981710 -1.594967 -13.693665 19.864994 -14.683824 -5.346950 38.879929 12.049074 34.092731 -1.119591 0.577348 -41.695084 -2.099034 
3.522713 46.459816 21.634138 0.048879 -2.607421 -28.220423 -0.000000 -0.000002 -0.000000 -8.906134 -8.018668 -48.109245 13.096989 30.825521 29.627249 -0.954937 -15.993991 -0.145955 -2.000757 -0.069240 1.990978 -11.014794 -18.420082 -85.844193 5.782763 6.287283 -78.402649 -17.051786 19.813805 27.462204 1.990970 -0.069577 -2.000746 71.568062 -7.752884 37.748138 -13.508741 -5.368507 112.992645 -134.600464 -59.851738 -95.588600 13.974801 -18.735491 16.196852 -7.530912 37.905792 3.329363 -2.805601 -12.704768 19.538967 -15.395442 -3.969275 39.990032 11.506201 33.568760 -0.773346 0.752439 -41.871952 -2.707909 
